<?xml version="1.0" encoding="UTF-8" standalone="no"?>
<!-- Created with Inkscape (http://www.inkscape.org/) -->

<svg
   xmlns:dc="http://purl.org/dc/elements/1.1/"
   xmlns:cc="http://creativecommons.org/ns#"
   xmlns:rdf="http://www.w3.org/1999/02/22-rdf-syntax-ns#"
   xmlns:svg="http://www.w3.org/2000/svg"
   xmlns="http://www.w3.org/2000/svg"
   xmlns:sodipodi="http://sodipodi.sourceforge.net/DTD/sodipodi-0.dtd"
   xmlns:inkscape="http://www.inkscape.org/namespaces/inkscape"
   width="744.09448"
   height="1052.3622"
   id="svg2"
   version="1.1"
   inkscape:version="0.48+devel r"
   sodipodi:docname="cave_symbols_symbols4.svg">
  <title>Cave rocks</title>
  <defs>
<symbol id="ab020a"><title>Rock, 020a</title><path        id="Qab020a"        d="m -0.2786977,-1.8120873e-5 0.14902,0.440660000873 0.46105,-0.1832 -0.10245,-0.46541 -0.326,-0.0594 z"        style="color:#000000;opacity:1;fill:none;stroke:#000000;stroke-width:0.35433072"        inkscape:connector-curvature="0" /></symbol>
<symbol id="ab020b"><title>Rock, 020b</title><path        id="Qab020b"        d="m -0.06967449,-0.41806454 -0.23856,0.54793 0.35082,0.51662 0.44905,-0.047 0,-0.92365 z"        style="color:#000000;opacity:1;fill:none;stroke:#000000;stroke-width:0.35433072"        inkscape:connector-curvature="0" /></symbol>
<symbol id="ab020c"><title>Rock, 020c</title><path        id="Qab020c"        d="m -0.2786977,-1.8120873e-5 0.44529,0.687370000873 0.29295,-0.17496 0.082,-0.37494 -0.21093,-0.41241 -0.36325,-0.0125 z"        style="color:#000000;opacity:1;fill:none;stroke:#000000;stroke-width:0.35433072"         /></symbol>
<symbol id="ab020d"><title>Rock, 020d</title><path        id="Qab020d"        d="m -0.41804651,-0.13936693 0,0.66924 0.27588,0 0.59119,-0.32779 -0.36786,-0.50535 z"        style="color:#000000;opacity:1;fill:none;stroke:#000000;stroke-width:0.35433072"         /></symbol>
<symbol id="ab020e"><title>Rock, 020e</title><path                id="Qab020e"        d="m -0.1393489,-0.20904133 -0.18854,0.48815 0.64992,0.0769 0.1857,-0.30768 z"        style="color:#000000;opacity:1;fill:none;stroke:#000000;stroke-width:0.35433072"         /></symbol>
<symbol id="ab020f"><title>Rock, 020f</title><path        id="Qab020f"        d="m -0.41804651,-1.8120873e-5 0.55057,-0.305719999127 0.53438,0.43445 -0.2429,0.41837 -0.43722,0 z"        style="color:#000000;opacity:1;fill:none;stroke:#000000;stroke-width:0.35433072"         /></symbol>
<symbol id="ab020g"><title>Rock, 020g</title><path        id="Qab020g"        d="m -1e-7,-0.27871572 -0.36277,0.55543 0.90693,0.29907 -0.0605,-0.59815 z"        style="color:#000000;opacity:1;fill:none;stroke:#000000;stroke-width:0.35433072"         /></symbol>
<symbol id="ab020h"><title>Rock, 020h</title><path        id="Qab020h"        d="m -0.2090233,-0.34839014 -0.18228,0.75311 0.49711,0.11217 0.46397,-0.40059 -0.0994,-0.3365 z"        style="color:#000000;opacity:1;fill:none;stroke:#000000;stroke-width:0.35433072"         /></symbol>
<symbol id="ab020i"><title>Rock, 020i</title><path                id="Qab020i"        d="m 0.06967431,0.06965628 0.0904,0.15916 0.094,-0.1109 z"        style="color:#000000;opacity:1;fill:none;stroke:#000000;stroke-width:0.35433072"         /></symbol>
<symbol id="ab020j"><title>Rock, 020j</title><path        id="Qab020j"        d="m -0.41804651,-1.8120873e-5 1.0649,-0.05619999913 -0.0998,0.34624 -0.83195,-0.0561 z"        style="color:#000000;opacity:1;fill:none;stroke:#000000;stroke-width:0.35433072"         /></symbol>
<symbol id="ab050a"><title>Rock, 050a</title><path        id="Qab050a"        d="m -0.48772091,-0.06969252 0.27256,0.79435 0.84327,-0.33024 -0.18738,-0.83897 -0.59626,-0.10708 z"        style="color:#000000;opacity:1;fill:none;stroke:#000000;stroke-width:0.35433072"         /></symbol>
<symbol id="ab050b"><title>Rock, 050b</title><path        id="Qab050b"        d="m -0.13934887,-0.90578533 -0.4143,0.92093 0.60925,0.86830005 0.77984,-0.079 0,-1.55242005 z"        style="color:#000000;opacity:1;fill:none;stroke:#000000;stroke-width:0.35433069"         /></symbol>
<symbol id="ab050c"><title>Rock, 050c</title><path        id="Qab050c"        d="m -0.69674412,-0.20904133 0.77848,1.17902 0.51215,-0.30011 0.14336,-0.64312 -0.36876,-0.70739 -0.63506,-0.0214 z"        style="color:#000000;opacity:1;fill:none;stroke:#000000;stroke-width:0.35433072"         /></symbol>
<symbol id="ab050d"><title>Rock, 050d</title><path        id="Qab050d"        d="m -0.62706972,-0.34839014 0,1.15878 0.48356,0 1.03622,-0.56757 -0.64478,-0.87501 z"        style="color:#000000;opacity:1;fill:none;stroke:#000000;stroke-width:0.35433072"         /></symbol>
<symbol id="ab050e"><title>Rock, 050e</title><path                id="Qab050e"        d="m -0.41804683,-0.48773896 -0.34003,0.9137 1.17212,0.14394 0.33491,-0.5759 z"        style="color:#000000;opacity:1;fill:none;stroke:#000000;stroke-width:0.35433072"         /></symbol>
<symbol id="ab050f"><title>Rock, 050f</title><path        id="Qab050f"        d="m -0.83609293,-0.20904133 0.95062,-0.52853 0.92267003,0.75108 -0.41940003,0.72327 -0.7549,0 z"        style="color:#000000;opacity:1;fill:none;stroke:#000000;stroke-width:0.35433072"         /></symbol>
<symbol id="ab050g"><title>Rock, 050g</title><path                id="Qab050g"        d="m -0.06967447,-0.76643652 -0.63977,0.9911 1.59944,0.53365004 -0.1067,-1.06732004 z"        style="color:#000000;opacity:1;fill:none;stroke:#000000;stroke-width:0.35433072" /></symbol>
<symbol id="ab050h"><title>Rock, 050h</title><path        id="Qab050h"        d="m -0.27869768,-0.76643652 -0.31295,1.30277 0.85346,0.19404004 0.79656998,-0.69296004 -0.17065998,-0.5821 z"        style="color:#000000;opacity:1;fill:none;stroke:#000000;stroke-width:0.35433072"         /></symbol>
<symbol id="ab050i"><title>Rock, 050i</title><path                id="Qab050i"        d="m -0.1393489,-0.13936693 0.30194,0.5316 0.31397,-0.37041 z"        style="color:#000000;opacity:1;fill:none;stroke:#000000;stroke-width:0.35433072"         /></symbol>
<symbol id="ab050j"><title>Rock, 050j</title><path        id="Qab050j"        d="m -0.90576733,-0.20904133 1.86489,-0.11485 -0.17477,0.70757 -1.45695,-0.11465 z"        style="color:#000000;opacity:1;fill:none;stroke:#000000;stroke-width:0.35433072"         /></symbol>
<symbol id="ab100a"><title>Rock, 100a</title><path        id="Qab100a"        d="m -0.90576727,-0.3483901 0.57531996,1.61887 1.77990001,-0.67301 -0.39553,-1.70982 -1.25852001,-0.21827 z"        style="color:#000000;opacity:1;fill:none;stroke:#000000;stroke-width:0.99212593"         /></symbol>
<symbol id="ab100b"><title>Rock, 100b</title><path        id="Qab100b"        d="m -0.62706924,-1.3935062 -0.79775996,1.64371 1.17317996,1.54979 1.50166004,-0.1409 0,-2.77082 z"        style="color:#000000;opacity:1;fill:none;stroke:#000000;stroke-width:0.99212605"         /></symbol>
<symbol id="ab100c"><title>Rock, 100c</title><path        id="Qab100c"        d="M -1.3934882,-0.55741331 0.12690187,1.6318367 1.1271519,1.0745767 1.4072118,-0.11957331 0.68703187,-1.4331133 l -1.2403,-0.0399 z"        style="color:#000000;opacity:1;fill:none;stroke:#000000;stroke-width:0.99212611"         /></symbol>
<symbol id="ab100d"><title>Rock, 100d</title><path        id="Qab100d"        d="m -1.1147907,-0.62708739 0,2.20109009 0.94764997,0 L 1.8635693,0.49591261 0.60000927,-1.1661373 Z"        style="color:#000000;opacity:1;fill:none;stroke:#000000;stroke-width:0.99212605"         /></symbol>
<symbol id="ab100e"><title>Rock, 100e</title><path                id="Qab100e"        d="m -0.69674365,-1.184483 -0.67998995,2.02992 2.34405995,0.31987 0.66973005,-1.27946 z"        style="color:#000000;opacity:1;fill:none;stroke:#000000;stroke-width:0.99212599"         /></symbol>
<symbol id="ab100f"><title>Rock, 100f</title><path        id="Qab100f"        d="M -1.672186,-0.41806418 0.12605404,-1.4215541 1.871414,0.00445582 1.078074,1.3776559 l -1.42802996,0 z"        style="color:#000000;opacity:1;fill:none;stroke:#000000;stroke-width:0.99212605"         /></symbol>
<symbol id="ab100g"><title>Rock, 100g</title><path        id="Qab100g"        d="M -0.48772044,-1.532855 -1.7404304,0.47754499 1.3913296,1.560075 1.1825496,-0.60497501 Z"        style="color:#000000;opacity:1;fill:none;stroke:#000000;stroke-width:0.99212599"         /></symbol>
<symbol id="ab100h"><title>Rock, 100h</title><path        id="Qab100h"        d="m -1.1147905,-1.5328554 -0.58462,2.47989995 1.59440996,0.36935005 1.48811004,-1.31909003 -0.31888,-1.10804997 z"        style="color:#000000;opacity:1;fill:none;stroke:#000000;stroke-width:0.99212593"         /></symbol>
<symbol id="ab100i"><title>Rock, 100i</title><path                id="Qab100i"        d="M -1.11479,-0.62708777 -0.00226006,1.3309623 1.15477,-0.03329777 Z"        style="color:#000000;opacity:1;fill:none;stroke:#000000;stroke-width:0.99212599"         /></symbol>
<symbol id="ab100j"><title>Rock, 100j</title><path        id="Qab100j"        d="m -1.6721855,-0.4877389 3.41421,-0.28937 -0.32008,1.78447 -2.66735,-0.28937 z"        style="color:#000000;opacity:1;fill:none;stroke:#000000;stroke-width:0.99212599"         /></symbol>
<symbol id="ab150a"><title>Rock, 150a</title><path        id="Qab150a"        d="M -2.229581,-0.41806498 -1.227971,2.3790151 1.870789,1.216195 1.182179,-1.7380349 -1.008861,-2.115165 Z"        style="color:#000000;opacity:1;fill:none;stroke:#000000;stroke-width:0.99212593"         /></symbol>
<symbol id="ab150b"><title>Rock, 150b</title><path        id="Qab150b"        d="m -1.3934881,-2.6476459 -1.35697,2.73950001 1.99553995,2.58296039 2.55428005,-0.2348303 0,-4.6180001 z"        style="color:#000000;opacity:1;fill:none;stroke:#000000;stroke-width:0.99212605"         /></symbol>
<symbol id="ab150c"><title>Rock, 150c</title><path        id="Qab150c"        d="m -2.8566504,-1.0451345 2.59550002,3.6911299 1.70754998,-0.93955 0.47809,-2.01336992 -1.22942997,-2.21466008 -2.11735003,-0.0673 z"        style="color:#000000;opacity:1;fill:none;stroke:#000000;stroke-width:0.99212605"         /></symbol>
<symbol id="ab150d"><title>Rock, 150d</title><path        id="Qab150d"        d="m -2.2992552,-1.811553 0,3.73294 1.61942005,0 L 2.7903948,0.09299704 0.63112485,-2.725753 Z"        style="color:#000000;opacity:1;fill:none;stroke:#000000;stroke-width:0.99212599"         /></symbol>
<symbol id="ab150e"><title>Rock, 150e</title><path                id="Qab150e"        d="m -1.4631626,-2.299273 -1.17145,3.57169 4.0382,0.56281 1.15377,-2.25122999 z"        style="color:#000000;opacity:1;fill:none;stroke:#000000;stroke-width:0.99212599"         /></symbol>
<symbol id="ab150f"><title>Rock, 150f</title><path        id="Qab150f"        d="m -2.8566502,-1.5328552 3.04590993,-1.7012601 2.95633007,2.41757008 -1.34378,2.32802992 -2.41883007,0 z"        style="color:#000000;opacity:1;fill:none;stroke:#000000;stroke-width:0.99212605"         /></symbol>
<symbol id="ab150g"><title>Rock, 150g</title><path        id="Qab150g"        d="m -0.6270695,-2.6476454 -2.14265,3.46536996 5.35659,1.86598034 -0.3571,-3.7319404 z"        style="color:#000000;opacity:1;fill:none;stroke:#000000;stroke-width:0.99212593"         /></symbol>
<symbol id="ab150h"><title>Rock, 150h</title><path        id="Qab150h"        d="m -1.5328369,-2.6476459 -0.98697,4.20669 2.69170994,0.6265301 2.51226006,-2.23759009 -0.53834,-1.87959991 z"        style="color:#000000;opacity:1;fill:none;stroke:#000000;stroke-width:0.99212599"         /></symbol>
<symbol id="ab150i"><title>Rock, 150i</title><path                id="Qab150i"        d="m -2.0205574,-2.3689481 2.13462997,3.75694 2.22002003,-2.61762 z"        style="color:#000000;opacity:1;fill:none;stroke:#000000;stroke-width:0.99212605"         /></symbol>
<symbol id="ab150j"><title>Rock, 150j</title><path        id="Qab150j"        d="m -2.5082782,-1.672204 5.76352,-0.5225901 -0.54032,3.22269 -4.50275,-0.52258997 z"        style="color:#000000;opacity:1;fill:none;stroke:#000000;stroke-width:0.99212593"         /></symbol>
<symbol id="ab200a"><title>Rock, 200a</title><path        id="Qab200a"        d="m -2.7869765,-1.184483 1.42857,3.97321 4.41965,-1.65178 -0.98215,-4.19643 -3.125,-0.53571 z"        style="color:#000000;opacity:1;fill:none;stroke:#000000;stroke-width:0.99212599"         /></symbol>
<symbol id="ab200b"><title>Rock, 200b</title><path        id="Qab200b"        d="m -1.4631629,-3.9714591 -1.91757,3.83356999 2.81996006,3.61453031 3.60953994,-0.3286 0,-6.4623303 z"        style="color:#000000;opacity:1;fill:none;stroke:#000000;stroke-width:0.99212599"         /></symbol>
<symbol id="ab200c"><title>Rock, 200c</title><path        id="Qab200c"        d="m -3.344371,-1.5328552 3.67378991,5.1893899 2.41696009,-1.32093 0.67674,-2.83059992 -1.74022,-3.11362008 -2.99701,-0.0945 z"        style="color:#000000;opacity:1;fill:none;stroke:#000000;stroke-width:0.99212605"         /></symbol>
<symbol id="ab200d"><title>Rock, 200d</title><path        id="Qab200d"        d="m -2.9263253,-2.3689478 0,5.2635203 2.29268999,0 4.91295001,-2.57805033 -3.05697,-3.97449997 z"        style="color:#000000;opacity:1;fill:none;stroke:#000000;stroke-width:0.99212599"         /></symbol>
<symbol id="ab200e"><title>Rock, 200e</title><path                id="Qab200e"        d="m -1.7418605,-3.6230871 -1.65921,5.12342 5.7196,0.8073303 1.63417,-3.22929029 z"        style="color:#000000;opacity:1;fill:none;stroke:#000000;stroke-width:0.99212599"         /></symbol>
<symbol id="ab200f"><title>Rock, 200f</title><path        id="Qab200f"        d="m -4.3198131,-1.2541574 4.29314005,-2.39911 4.16687995,3.40926004 -1.89403,3.28299996 -3.40927,0 z"        style="color:#000000;opacity:1;fill:none;stroke:#000000;stroke-width:0.99212599"         /></symbol>
<symbol id="ab200g"><title>Rock, 200g</title><path        id="Qab200g"        d="m -1.0451164,-3.9017847 -3.03046,4.9245 7.57615,2.6516503 -0.50508,-5.3033003 z"        style="color:#000000;opacity:1;fill:none;stroke:#000000;stroke-width:0.99212599"         /></symbol>
<symbol id="ab200h"><title>Rock, 200h</title><path        id="Qab200h"        d="m -1.9508834,-3.5534127 -1.38896,5.9346503 3.78807006,0.88388 3.53553994,-3.15672026 -0.75762,-2.65166004 z"        style="color:#000000;opacity:1;fill:none;stroke:#000000;stroke-width:0.99212599"         /></symbol>
<symbol id="ab200i"><title>Rock, 200i</title><path                id="Qab200i"        d="M -3.1353482,-2.4386222 0.02138181,3.1172081 3.3043718,-0.75380221 Z"        style="color:#000000;opacity:1;fill:none;stroke:#000000;stroke-width:0.99212599"         /></symbol>
<symbol id="ab200j"><title>Rock, 200j</title><path        id="Qab200j"        d="m -4.1804643,-1.4631806 8.08122,-0.75761 -0.75761,4.67195 -6.31345,-0.75761 z"        style="color:#000000;opacity:1;fill:none;stroke:#000000;stroke-width:0.99212599"         /></symbol>
<symbol id="rb020a"><title>Pebble, 020a</title><path                id="Qrb020a"        d="m -0.2090233,0.5573771 c 0.19342,0.003 0.49555,-0.099 0.60205,-0.27773 0.15671,-0.26301 -0.0413,-0.67167 -0.28008,-0.59917 -0.54053,0.16413 -0.6861,0.87195 -0.32197,0.8769 z"        style="color:#000000;opacity:1;fill:none;stroke:#000000;stroke-width:0.35433072"         /></symbol>
<symbol id="rb020b"><title>Pebble, 020b</title><path                id="Qrb020b"        d="m -0.13934891,0.55737712 c -0.0832,0.39679 0.6579,0.12669 0.73464,-0.14713 0.0841,-0.29991 -0.31195,-0.78024 -0.56945,-0.67801 -0.19262,0.0765 -0.10388,0.53277 -0.16519,0.82514 z"        style="color:#000000;opacity:1;fill:none;stroke:#000000;stroke-width:0.35433072"         /></symbol>
<symbol id="rb020c"><title>Pebble, 020c</title><path                id="Qrb020c"        d="m -0.06967451,0.90574914 c 0.1411,0.21851996 0.60553,-0.21516 0.67175,-0.47896 0.10594,-0.42204 -0.64784,-1.22606 -0.75873,-0.66795 -0.0868,0.43694 -0.32211,0.51335 0.087,1.14691 z"        style="color:#000000;opacity:1;fill:none;stroke:#000000;stroke-width:0.35433072"         /></symbol>
<symbol id="rb020d"><title>Pebble, 020d</title><path                id="Qrb020d"        d="m -0.20902331,0.69672593 c -0.224,-0.2898 -0.0546,-1.10059 0.46012,-0.87844 0.20143,0.0869 0.38514,0.40413 0.3024,0.6198 -0.1016,0.2648 -0.59221,0.47898 -0.76252,0.25864 z"        style="color:#000000;opacity:1;fill:none;stroke:#000000;stroke-width:0.35433072"         /></symbol>
<symbol id="rb020e"><title>Pebble, 020e</title><path                id="Qrb020e"        d="m -0.55739563,0.20900508 c -0.0947,-0.28853 0.45888,-0.65086 0.78981,-0.57502 0.27642,0.0633 0.48495,0.50505 0.30821,0.70211 -0.22838,0.25465 -0.99577,0.18435 -1.09802,-0.12709 z"        style="color:#000000;opacity:1;fill:none;stroke:#000000;stroke-width:0.35433072"         /></symbol>
<symbol id="rb020f"><title>Pebble, 020f</title><path                id="Qrb020f"        d="m -0.55739563,0.27867948 c -0.10321,-0.15289 0.16061,-0.69334 0.63738,-0.77505 0.47678,-0.0817 0.65939,0.52771 0.35259,0.92872 -0.30679,0.40101 -0.88676,-6.9e-4 -0.98997,-0.15367 z"        style="color:#000000;opacity:1;fill:none;stroke:#000000;stroke-width:0.35433072"         /></symbol>
<symbol id="rb020g"><title>Pebble, 020g</title><path                id="Qrb020g"        d="m -0.48772123,-1.813e-5 c -0.0765,-0.0688 0.15055,-0.25605 0.61311,-0.30515 0.46257,-0.0491 0.72849,0.36291 0.3815,0.3963 -0.34699,0.0334 -0.91807,-0.0224 -0.99461,-0.0912 z"        style="color:#000000;opacity:1;fill:none;stroke:#000000;stroke-width:0.35433072"         /></symbol>
<symbol id="rb020h"><title>Pebble, 020h</title><path                id="Qrb020h"        d="m -0.13934854,-0.41806473 c -0.32575,-0.0255 -0.70145,0.3215 -0.59348,0.59873 0.10797,0.27723 0.80153,0.37752 1.12411,0.18749 0.32259,-0.19004 -0.20489,-0.7607 -0.53063,-0.78622 z"        style="color:#000000;opacity:1;fill:none;stroke:#000000;stroke-width:0.35433072"         /></symbol>
<symbol id="rb020i"><title>Pebble, 020i</title><path                id="Qrb020i"        d="m -0.62707004,-0.06969254 c 0.25411,0.19171 0.50872,0.49391 0.71182,0.40407 0.2031,-0.0898 0.64736,-0.48051 0.28746,-0.63035 -0.3599,-0.14984 -1.25339,0.0346 -0.99928,0.22628 z"        style="color:#000000;opacity:1;fill:none;stroke:#000000;stroke-width:0.35433072"         /></symbol>
<symbol id="rb020j"><title>Pebble, 020j</title><path                id="Qrb020j"        d="m -0.34837242,0.34835388 c -0.15469,-0.12904 0.0914,-0.58521 0.58356,-0.65418 0.49217,-0.069 0.29952,0.15781 0.0186,0.49628 -0.28089,0.33847 -0.4475,0.28698 -0.60219,0.1579 z"        style="color:#000000;opacity:1;fill:none;stroke:#000000;stroke-width:0.35433072"         /></symbol>
<symbol id="rb050a"><title>Pebble, 050a</title><path                id="Qrb050a"        d="m -0.34837207,1.0450979 c 0.33033,0.005 0.84632,-0.16825002 1.0282,-0.47200002 0.26764,-0.44699 -0.0705,-1.1415 -0.47833,-1.01829 -0.92314,0.27894 -1.17174999,1.48188002 -0.54987,1.49029002 z"        style="color:#000000;opacity:1;fill:none;stroke:#000000;stroke-width:0.35433072"         /></symbol>
<symbol id="rb050b"><title>Pebble, 050b</title><path                id="Qrb050b"        d="m -0.55739528,0.69672587 c -0.14452,0.66329003 1.14276,0.21178 1.27606,-0.24595 0.14608,-0.50134 -0.54185,-1.30428 -0.98913,-1.13339 -0.33457,0.12788 -0.18043,0.8906 -0.28693,1.37934 z"        style="color:#000000;opacity:1;fill:none;stroke:#000000;stroke-width:0.35433072"         /></symbol>
<symbol id="rb050c"><title>Pebble, 050c</title><path                id="Qrb050c"        d="m -0.20902326,1.1147723 c 0.23901,0.35527 1.02572,-0.34982001 1.1379,-0.77871001 0.17944996,-0.68616 -1.0974,-1.99335999 -1.28524,-1.08597 -0.14703,0.71039 -0.54563,0.83462 0.14737,1.86468001 z"        style="color:#000000;opacity:1;fill:none;stroke:#000000;stroke-width:0.35433072"         /></symbol>
<symbol id="rb050d"><title>Pebble, 050d</title><path                id="Qrb050d"        d="m -0.48772088,0.83607467 c -0.38213,-0.48532 -0.0931,-1.84312997 0.78492,-1.4711 0.34363,0.14553 0.65702,0.67678 0.51587,1.03796 -0.17332,0.44346 -1.01026,0.80214003 -1.30079,0.43314 z"        style="color:#000000;opacity:1;fill:none;stroke:#000000;stroke-width:0.35433072"         /></symbol>
<symbol id="rb050e"><title>Pebble, 050e</title><path                id="Qrb050e"        d="m -0.90576729,0.41802826 c -0.15639001,-0.49236 0.75777,-1.11064 1.30426,-0.98123 0.45647,0.10802 0.80082999,0.86183 0.50897,1.1981 -0.37714,0.43453004 -1.64438,0.31457 -1.81323,-0.21687 z"        style="color:#000000;opacity:1;fill:none;stroke:#000000;stroke-width:0.35433072"         /></symbol>
<symbol id="rb050f"><title>Pebble, 050f</title><path                id="Qrb050f"        d="m -0.90576752,0.48770306 c -0.17067998,-0.25369 0.26561,-1.15046 1.05408,-1.28604 0.78848,-0.13557 1.09048002,0.87563 0.5831,1.54103 -0.50736,0.66540004 -1.46649,-0.001 -1.63718,-0.25499 z"        style="color:#000000;opacity:1;fill:none;stroke:#000000;stroke-width:0.35433072"         /></symbol>
<symbol id="rb050g"><title>Pebble, 050g</title><path                id="Qrb050g"        d="m -0.76641872,0.27867986 c -0.12637,-0.14294 0.24871,-0.53198 1.01284,-0.63399 0.76415002,-0.10201 1.20344002,0.75399 0.63022,0.82336 -0.57321,0.0694 -1.51661,-0.0465 -1.64306,-0.18947 z"        style="color:#000000;opacity:1;fill:none;stroke:#000000;stroke-width:0.35433072"         /></symbol>
<symbol id="rb050h"><title>Pebble, 050h</title><path                id="Qrb050h"        d="m -0.06967452,-0.69676171 c -0.53498,-0.0434 -1.15200998,0.54696 -0.97467998,1.0186 0.17731998,0.47165 1.31636998,0.64227 1.84614998,0.31898 0.52980002,-0.32331 -0.3365,-1.29417 -0.87147,-1.33758 z"        style="color:#000000;opacity:1;fill:none;stroke:#000000;stroke-width:0.35433072"         /></symbol>
<symbol id="rb050i"><title>Pebble, 050i</title><path                id="Qrb050i"        d="m -0.76641805,-1.8145714e-5 c 0.41933,0.336490005714 0.83949,0.866920005714 1.17464,0.709230005714 0.33516,-0.15762 1.06827005,-0.8434 0.47437,-1.1064 -0.59391,-0.263 -2.06833995,0.0607 -1.64901,0.397169994286 z"        style="color:#000000;opacity:1;fill:none;stroke:#000000;stroke-width:0.35433072"         /></symbol>
<symbol id="rb050j"><title>Pebble, 050j</title><path                id="Qrb050j"        d="m -0.55739551,0.55737747 c -0.28347,-0.22362 0.16749,-1.01414 1.06936,-1.13366 0.90189001,-0.11957 0.54887001,0.27348 0.0341,0.86003 -0.51473,0.58655 -0.82004,0.49732 -1.10351,0.27363 z"        style="color:#000000;opacity:1;fill:none;stroke:#000000;stroke-width:0.35433072"         /></symbol>
<symbol id="rb100a"><title>Pebble, 100a</title><path                id="Qrb100a"        d="m -0.76641805,1.6024932 c 0.6119,0.008 1.56773,-0.30864 1.90464005,-0.86580007 0.49579,-0.81989 -0.1306701,-2.09385993 -0.88606005,-1.86783993 -1.71002995,0.51166993 -2.17057995,2.71821 -1.01858,2.73364 z"        style="color:#000000;opacity:1;fill:none;stroke:#000000;stroke-width:0.99212599"         /></symbol>
<symbol id="rb100b"><title>Pebble, 100b</title><path                id="Qrb100b"        d="m -1.2541389,0.9057489 c -0.2768901,1.17507 2.18924995,0.37517 2.44464,-0.43572997 0.27971,-0.88816 -1.03808009,-2.31060003 -1.89493009,-2.00786003 -0.64095991,0.22647 -0.34569001,1.57775003 -0.54970991,2.44359 z"        style="color:#000000;opacity:1;fill:none;stroke:#000000;stroke-width:0.99212599"         /></symbol>
<symbol id="rb100c"><title>Pebble, 100c</title><path                id="Qrb100c"        d="m -0.62706937,1.8811908 c 0.43546,0.5914101 1.86878997,-0.58234 2.07314997,-1.29629999 0.32694,-1.14223 -1.99934997,-3.31827991 -2.34157997,-1.80778001 -0.26793003,1.18257001 -0.99411003,1.38935001 0.26843,3.10408 z"        style="color:#000000;opacity:1;fill:none;stroke:#000000;stroke-width:0.99212605"         /></symbol>
<symbol id="rb100d"><title>Pebble, 100d</title><path                id="Qrb100d"        d="M -0.90576698,1.5328187 C -1.611917,0.6693388 -1.077867,-1.7463712 0.54468302,-1.0844813 1.179673,-0.8254512 1.758783,0.1196188 1.497953,0.7621788 1.177693,1.5511587 -0.36890698,2.1892887 -0.90576698,1.5328187 Z"        style="color:#000000;opacity:1;fill:none;stroke:#000000;stroke-width:0.99212599"         /></symbol>
<symbol id="rb100e"><title>Pebble, 100e</title><path                id="Qrb100e"        d="m -1.6025111,0.62705155 c -0.27009,-0.91045 1.30841009,-2.05378995 2.25200009,-1.81450005 0.78817991,0.19988005 1.38276991,1.59371005 0.87882991,2.21555 -0.65119991,0.80356 -2.8393,0.58171 -3.13083,-0.40104995 z"        style="color:#000000;opacity:1;fill:none;stroke:#000000;stroke-width:0.99212599"         /></symbol>
<symbol id="rb100f"><title>Pebble, 100f</title><path                id="Qrb100f"        d="m -1.881209,0.55737666 c -0.29531,-0.44243 0.45954,-2.00644996 1.82372003,-2.24289996 1.36418997,-0.23644 1.88669997,1.52713996 1.00886996,2.6876099 -0.87781996,1.16047 -2.53727999,-0.002 -2.83258999,-0.44470994 z"        style="color:#000000;opacity:1;fill:none;stroke:#000000;stroke-width:0.99212599"         /></symbol>
<symbol id="rb100g"><title>Pebble, 100g</title><path                id="Qrb100g"        d="m -1.4631624,0.34835386 c -0.21819,-0.30407 0.42912,-1.13212 1.74762006,-1.34920996 1.31850994,-0.21709 2.07646994,1.60456996 1.08741994,1.75221996 -0.98905994,0.14764 -2.61686,-0.0989 -2.83504,-0.40301 z"        style="color:#000000;opacity:1;fill:none;stroke:#000000;stroke-width:0.99212599"         /></symbol>
<symbol id="rb100h"><title>Pebble, 100h</title><path                id="Qrb100h"        d="m 0.06967431,-1.4631803 c -0.91142,-0.0798 -1.96262001,1.00543006 -1.66052001,1.87240006 0.3021,0.86695994 2.24264001,1.18058994 3.14521,0.58630998 C 2.4569443,0.40124976 0.98108431,-1.3833603 0.06967431,-1.4631803 Z"        style="color:#000000;opacity:1;fill:none;stroke:#000000;stroke-width:0.99212599"         /></symbol>
<symbol id="rb100i"><title>Pebble, 100i</title><path                id="Qrb100i"        d="m -1.3238136,-0.20904136 c 0.72189007,0.65737 1.44520007,1.69363006 2.02218007,1.38556006 0.57697993,-0.30808004 1.83906993,-1.64766006 0.81664993,-2.16148006 -1.02242993,-0.51380994 -3.56071,0.11854 -2.83883,0.77592 z"        style="color:#000000;opacity:1;fill:none;stroke:#000000;stroke-width:0.99212599"         /></symbol>
<symbol id="rb100j"><title>Pebble, 100j</title><path                id="Qrb100j"        d="m -1.2541391,0.76639993 c -0.4739,-0.42651997 0.27999,-1.93431993 1.78779,-2.16227003 1.5078,-0.22794 0.91759,0.52159006 0.0571,1.64034006 -0.86053,1.11874994 -1.37094,0.94856994 -1.84485,0.52192997 z"        style="color:#000000;opacity:1;fill:none;stroke:#000000;stroke-width:0.99212599"         /></symbol>
<symbol id="rb150a"><title>Pebble, 150a</title><path                id="Qrb150a"        d="m -1.3934881,2.368912 c 1.03037992,0.0134 2.63991,-0.51827 3.20724,-1.45386997 0.83486,-1.37677 -0.22004,-3.51605003 -1.49205008,-3.13651003 -2.87952992,0.8592 -3.65504992,4.56447 -1.71518992,4.59038 z"        style="color:#000000;opacity:1;fill:none;stroke:#000000;stroke-width:0.99212605"         /></symbol>
<symbol id="rb150b"><title>Pebble, 150b</title><path                id="Qrb150b"        d="m -1.9508834,1.672168 c -0.47057,1.95334 3.7206,0.62365 4.15463,-0.72433 0.47536,-1.47641 -1.7642,-3.84097 -3.22041,-3.33771 -1.0893,0.37646 -0.58749,2.62273 -0.93422,4.06204 z"        style="color:#000000;opacity:1;fill:none;stroke:#000000;stroke-width:0.99212605"         /></symbol>
<symbol id="rb150c"><title>Pebble, 150c</title><path                id="Qrb150c"        d="m -0.97544156,2.5779349 c 0.72981996,0.9643 3.13204996,-0.9495201 3.47454996,-2.11364006 0.54794,-1.86242004 -3.35086,-5.41049994 -3.92443,-2.94761004 -0.44905,1.92820004 -1.66611,2.26536004 0.44988004,5.0612501 z"        style="color:#000000;opacity:1;fill:none;stroke:#000000;stroke-width:0.99212611"         /></symbol>
<symbol id="rb150d"><title>Pebble, 150d</title><path                id="Qrb150d"        d="m -1.4631622,1.1844465 c -1.18829,-1.43715 -0.2896,-5.45778 2.44079,-4.35615 1.06855,0.43112 2.04306,2.00407 1.60414,3.07352 -0.53892,1.31316 -3.14151,2.37524 -4.04493,1.28263 z"        style="color:#000000;opacity:1;fill:none;stroke:#000000;stroke-width:0.99212593"         /></symbol>
<symbol id="rb150e"><title>Pebble, 150e</title><path                id="Qrb150e"        d="m -2.926325,0.41802832 c -0.44545,-1.53238002 2.15795002,-3.45673002 3.71420002,-3.05398002 1.29992998,0.33642 2.28057998,2.68237002 1.44943998,3.72898 -1.07401,1.35247 -4.68282,0.97908 -5.16364,-0.67499998 z"        style="color:#000000;opacity:1;fill:none;stroke:#000000;stroke-width:0.99212599"         /></symbol>
<symbol id="rb150f"><title>Pebble, 150f</title><path                id="Qrb150f"        d="m -2.7869762,0.97542351 c -0.48741,-0.73197997 0.75847,-3.31956001 3.01006003,-3.71075001 2.25159997,-0.39118 3.11400997,2.52656004 1.66514997,4.44649 -1.44884997,1.91993 -4.1878,-0.003 -4.67521,-0.73573999 z"        style="color:#000000;opacity:1;fill:none;stroke:#000000;stroke-width:0.99212599"         /></symbol>
<symbol id="rb150g"><title>Pebble, 150g</title><path                id="Qrb150g"        d="m -2.6476274,0.55737745 c -0.35983,-0.53937 0.70769,-2.00819005 2.88211999,-2.39327005 2.17445001,-0.38508 3.42446001,2.84623 1.79335001,3.10814 -1.63113001,0.26188 -4.31565,-0.17544 -4.67547,-0.71486995 z"        style="color:#000000;opacity:1;fill:none;stroke:#000000;stroke-width:0.99212593"         /></symbol>
<symbol id="rb150h"><title>Pebble, 150h</title><path                id="Qrb150h"        d="m -0.06967449,-2.4386219 c -1.49709001,-0.13408 -3.22379001,1.68936001 -2.72756001,3.14607001 0.49623,1.45668999 3.68375001,1.98365999 5.16631,0.98513999 1.48257,-0.99852999 -0.94167,-3.99709 -2.43874999,-4.13121 z"        style="color:#000000;opacity:1;fill:none;stroke:#000000;stroke-width:0.99212599"         /></symbol>
<symbol id="rb150i"><title>Pebble, 150i</title><path                id="Qrb150i"        d="m -2.8566506,-0.20904098 c 1.18967,1.12303002 2.38167998,2.89333998 3.33253998,2.36704998 0.95086002,-0.52632 3.03078002,-2.81481998 1.34584002,-3.69261 -1.68496002,-0.87778 -5.86803,0.20251 -4.67838,1.32556002 z"        style="color:#000000;opacity:1;fill:none;stroke:#000000;stroke-width:0.99212605"         /></symbol>
<symbol id="rb150j"><title>Pebble, 150j</title><path                id="Qrb150j"        d="m -2.0205578,1.7418423 c -0.79311,-0.724 0.46859,-3.28343 2.99202002,-3.67037 2.52342998,-0.38691 1.53565998,0.88538 0.0956,2.78441001 -1.4401699,1.89902999 -2.29438,1.61015999 -3.08751,0.88595999 z"        style="color:#000000;opacity:1;fill:none;stroke:#000000;stroke-width:0.99212605"         /></symbol>
<symbol id="rb200a"><title>Pebble, 200a</title><path                id="Qrb200a"        d="m -1.5328369,3.2746789 c 1.44887008,0.0193 3.71206,-0.72793 4.5098,-2.04196 1.17391,-1.93367003 -0.30941,-4.93826 -2.09799992,-4.4052 -4.04899008,1.20674 -5.13949008,6.41076 -2.41180008,6.44716 z"        style="color:#000000;opacity:1;fill:none;stroke:#000000;stroke-width:0.99212599"         /></symbol>
<symbol id="rb200b"><title>Pebble, 200b</title><path                id="Qrb200b"        d="m -2.7173017,2.1598885 c -0.66423,2.7342 5.25176,0.87296 5.86439,-1.01387 0.67101,-2.06662005 -2.49021998,-5.37639 -4.54569,-4.67196 -1.5376,0.52695 -0.82928,3.67115992 -1.3187,5.68583 z"        style="color:#000000;opacity:1;fill:none;stroke:#000000;stroke-width:0.99212599"         /></symbol>
<symbol id="rb200c"><title>Pebble, 200c</title><path                id="Qrb200c"        d="m -1.3238137,4.0410973 c 1.02417009,1.3372701 4.39527,-1.3167399 4.87591,-2.93111 0.76896,-2.58276 -4.70235,-7.5031299 -5.50725,-4.0876599 -0.63015,2.67395991 -2.3381,3.14152991 0.63134,7.0187699 z"        style="color:#000000;opacity:1;fill:none;stroke:#000000;stroke-width:0.99212599"         /></symbol>
<symbol id="rb200d"><title>Pebble, 200d</title><path                id="Qrb200d"        d="m -2.2992548,3.13533 c -1.67034,-2.0109 -0.40708,-7.63671 3.43093,-6.09527 1.50202,0.60325 2.87187,2.80415996 2.25489,4.30059 -0.75756,1.8374 -4.41592,3.3235 -5.68582,1.79468 z"        style="color:#000000;opacity:1;fill:none;stroke:#000000;stroke-width:0.99212599"         /></symbol>
<symbol id="rb200e"><title>Pebble, 200e</title><path                id="Qrb200e"        d="m -3.48372,1.2541211 c -0.62089,-2.15415002 3.00785005,-4.85929 5.17703,-4.29314 1.81192,0.47291 3.17878,3.77075001 2.0203,5.24202 -1.49702,1.90123 -6.52713,1.37633 -7.19733,-0.94888 z"        style="color:#000000;opacity:1;fill:none;stroke:#000000;stroke-width:0.99212599"         /></symbol>
<symbol id="rb200f"><title>Pebble, 200f</title><path                id="Qrb200f"        d="m -3.6927434,1.8115164 c -0.67952,-1.02151999 1.0574,-4.6326599 4.19642008,-5.17858 3.13901992,-0.54592 4.34132992,3.52598001 2.32142992,6.20536 -2.01989992,2.67937 -5.83834,-0.005 -6.51785,-1.02678 z"        style="color:#000000;opacity:1;fill:none;stroke:#000000;stroke-width:0.99212599"         /></symbol>
<symbol id="rb200g"><title>Pebble, 200g</title><path                id="Qrb200g"        d="m -3.832092,1.4631443 c -0.50161,-0.77469998 0.98657,-2.88441 4.01785004,-3.43751 3.03127996,-0.5531 4.77386996,4.08812 2.49999996,4.46429 -2.27386996,0.37617 -6.01624,-0.25208 -6.51785,-1.02678 z"        style="color:#000000;opacity:1;fill:none;stroke:#000000;stroke-width:0.99212599"         /></symbol>
<symbol id="rb200h"><title>Pebble, 200h</title><path                id="Qrb200h"        d="m 0.13934902,-3.2050407 c -2.08278002,-0.18841 -4.48500002,2.37323998 -3.79464002,4.41964 0.69036,2.0464003 5.12491,2.7866803 7.1875,1.3839303 2.06259,-1.4027503 -1.31008,-5.6151603 -3.39285998,-5.8035703 z"        style="color:#000000;opacity:1;fill:none;stroke:#000000;stroke-width:0.99212599"         /></symbol>
<symbol id="rb200i"><title>Pebble, 200i</title>
 <path
     style="color:#000000;opacity:1;fill:none;stroke:#000000;stroke-width:0.99212599"
     d="m -3.3316409,-0.5472495 c 1.6574523,1.5886919 3.31816465,4.0930623 4.6429048,3.3485374 1.3247401,-0.7445491 4.2224858,-3.9819648 1.87502,-5.2237338 -2.34748874,-1.2417446 -8.1753539,0.2864803 -6.5179248,1.8751964 z"
     id="Qrb200i" />
</symbol>
<symbol id="rb200j"><title>Pebble, 200j</title>
  <path
     inkscape:connector-curvature="0"
     style="color:#000000;opacity:1;fill:none;stroke:#000000;stroke-width:0.99212599"
     d="M -2.9883448,2.0754525 C -4.1006677,1.0539735 -2.3311613,-2.5570791 1.2078985,-3.1030002 4.7469583,-3.6488971 3.3616363,-1.8538364 1.3419218,0.82547463 -0.67788661,3.5047855 -1.8759046,3.0972189 -2.9882509,2.0754525 Z"
     id="Qrb200j" />
</symbol>
	</defs>
</svg>
