<?xml version="1.0" encoding="UTF-8" standalone="no"?>
<!-- Created with Inkscape (http://www.inkscape.org/) -->

<svg
   xmlns:dc="http://purl.org/dc/elements/1.1/"
   xmlns:cc="http://creativecommons.org/ns#"
   xmlns:rdf="http://www.w3.org/1999/02/22-rdf-syntax-ns#"
   xmlns:svg="http://www.w3.org/2000/svg"
   xmlns="http://www.w3.org/2000/svg"
   xmlns:sodipodi="http://sodipodi.sourceforge.net/DTD/sodipodi-0.dtd"
   xmlns:inkscape="http://www.inkscape.org/namespaces/inkscape"
   width="744.09448"
   height="1052.3622"
   id="grsvg2"
   version="1.1"
   inkscape:version="0.48+devel r"
   sodipodi:docname="cave_symbols_symbols4.svg">
  <title>Cave rocks - Gray</title>
  <defs>
<symbol id="grab200a"><title>Rock, a</title><path        id="grQab200a"        d="m -2.7869765,-1.184483 1.42857,3.97321 4.41965,-1.65178 -0.98215,-4.19643 -3.125,-0.53571 z"        style="color:#a0a0a0;opacity:1;fill:#a0a0a0;stroke:none;stroke-width:0.99212599"         /></symbol>
<symbol id="grab200b"><title>Rock, b</title><path        id="grQab200b"        d="m -1.4631629,-3.9714591 -1.91757,3.83356999 2.81996006,3.61453031 3.60953994,-0.3286 0,-6.4623303 z"        style="color:#a0a0a0;opacity:1;fill:#a0a0a0;stroke:none;stroke-width:0.99212599"         /></symbol>
<symbol id="grab200c"><title>Rock, c</title><path        id="grQab200c"        d="m -3.344371,-1.5328552 3.67378991,5.1893899 2.41696009,-1.32093 0.67674,-2.83059992 -1.74022,-3.11362008 -2.99701,-0.0945 z"        style="color:#a0a0a0;opacity:1;fill:#a0a0a0;stroke:none;stroke-width:0.99212605"         /></symbol>
<symbol id="grab200d"><title>Rock, d</title><path        id="grQab200d"        d="m -2.9263253,-2.3689478 0,5.2635203 2.29268999,0 4.91295001,-2.57805033 -3.05697,-3.97449997 z"        style="color:#a0a0a0;opacity:1;fill:#a0a0a0;stroke:none;stroke-width:0.99212599"         /></symbol>
<symbol id="grab200e"><title>Rock, e</title><path                id="grQab200e"        d="m -1.7418605,-3.6230871 -1.65921,5.12342 5.7196,0.8073303 1.63417,-3.22929029 z"        style="color:#a0a0a0;opacity:1;fill:#a0a0a0;stroke:none;stroke-width:0.99212599"         /></symbol>
<symbol id="grab200f"><title>Rock, f</title><path        id="grQab200f"        d="m -4.3198131,-1.2541574 4.29314005,-2.39911 4.16687995,3.40926004 -1.89403,3.28299996 -3.40927,0 z"        style="color:#a0a0a0;opacity:1;fill:#a0a0a0;stroke:none;stroke-width:0.99212599"         /></symbol>
<symbol id="grab200g"><title>Rock, g</title><path        id="grQab200g"        d="m -1.0451164,-3.9017847 -3.03046,4.9245 7.57615,2.6516503 -0.50508,-5.3033003 z"        style="color:#a0a0a0;opacity:1;fill:#a0a0a0;stroke:none;stroke-width:0.99212599"         /></symbol>
<symbol id="grab200h"><title>Rock, h</title><path        id="grQab200h"        d="m -1.9508834,-3.5534127 -1.38896,5.9346503 3.78807006,0.88388 3.53553994,-3.15672026 -0.75762,-2.65166004 z"        style="color:#a0a0a0;opacity:1;fill:#a0a0a0;stroke:none;stroke-width:0.99212599"         /></symbol>
<symbol id="grab200i"><title>Rock, i</title><path                id="grQab200i"        d="M -3.1353482,-2.4386222 0.02138181,3.1172081 3.3043718,-0.75380221 Z"        style="color:#a0a0a0;opacity:1;fill:#a0a0a0;stroke:none;stroke-width:0.99212599"         /></symbol>
<symbol id="grab200j"><title>Rock, j</title><path        id="grQab200j"        d="m -4.1804643,-1.4631806 8.08122,-0.75761 -0.75761,4.67195 -6.31345,-0.75761 z"        style="color:#a0a0a0;opacity:1;fill:#a0a0a0;stroke:none;stroke-width:0.99212599"         /></symbol>
<symbol id="grrb150a"><title>Pebble, a</title><path                id="grQrb150a"        d="m -1.3934881,2.368912 c 1.03037992,0.0134 2.63991,-0.51827 3.20724,-1.45386997 0.83486,-1.37677 -0.22004,-3.51605003 -1.49205008,-3.13651003 -2.87952992,0.8592 -3.65504992,4.56447 -1.71518992,4.59038 z"        style="color:#a0a0a0;opacity:1;fill:#a0a0a0;stroke:none;stroke-width:0.99212605"         /></symbol>
<symbol id="grrb150b"><title>Pebble, b</title><path                id="grQrb150b"        d="m -1.9508834,1.672168 c -0.47057,1.95334 3.7206,0.62365 4.15463,-0.72433 0.47536,-1.47641 -1.7642,-3.84097 -3.22041,-3.33771 -1.0893,0.37646 -0.58749,2.62273 -0.93422,4.06204 z"        style="color:#a0a0a0;opacity:1;fill:#a0a0a0;stroke:none;stroke-width:0.99212605"         /></symbol>
<symbol id="grrb150c"><title>Pebble, c</title><path                id="grQrb150c"        d="m -0.97544156,2.5779349 c 0.72981996,0.9643 3.13204996,-0.9495201 3.47454996,-2.11364006 0.54794,-1.86242004 -3.35086,-5.41049994 -3.92443,-2.94761004 -0.44905,1.92820004 -1.66611,2.26536004 0.44988004,5.0612501 z"        style="color:#a0a0a0;opacity:1;fill:#a0a0a0;stroke:none;stroke-width:0.99212611"         /></symbol>
<symbol id="grrb150d"><title>Pebble, d</title><path                id="grQrb150d"        d="m -1.4631622,1.1844465 c -1.18829,-1.43715 -0.2896,-5.45778 2.44079,-4.35615 1.06855,0.43112 2.04306,2.00407 1.60414,3.07352 -0.53892,1.31316 -3.14151,2.37524 -4.04493,1.28263 z"        style="color:#a0a0a0;opacity:1;fill:#a0a0a0;stroke:none;stroke-width:0.99212593"         /></symbol>
<symbol id="grrb150e"><title>Pebble, e</title><path                id="grQrb150e"        d="m -2.926325,0.41802832 c -0.44545,-1.53238002 2.15795002,-3.45673002 3.71420002,-3.05398002 1.29992998,0.33642 2.28057998,2.68237002 1.44943998,3.72898 -1.07401,1.35247 -4.68282,0.97908 -5.16364,-0.67499998 z"        style="color:#a0a0a0;opacity:1;fill:#a0a0a0;stroke:none;stroke-width:0.99212599"         /></symbol>
<symbol id="grrb150f"><title>Pebble, f</title><path                id="grQrb150f"        d="m -2.7869762,0.97542351 c -0.48741,-0.73197997 0.75847,-3.31956001 3.01006003,-3.71075001 2.25159997,-0.39118 3.11400997,2.52656004 1.66514997,4.44649 -1.44884997,1.91993 -4.1878,-0.003 -4.67521,-0.73573999 z"        style="color:#a0a0a0;opacity:1;fill:#a0a0a0;stroke:none;stroke-width:0.99212599"         /></symbol>
<symbol id="grrb150g"><title>Pebble, g</title><path                id="grQrb150g"        d="m -2.6476274,0.55737745 c -0.35983,-0.53937 0.70769,-2.00819005 2.88211999,-2.39327005 2.17445001,-0.38508 3.42446001,2.84623 1.79335001,3.10814 -1.63113001,0.26188 -4.31565,-0.17544 -4.67547,-0.71486995 z"        style="color:#a0a0a0;opacity:1;fill:#a0a0a0;stroke:none;stroke-width:0.99212593"         /></symbol>
<symbol id="grrb150h"><title>Pebble, h</title><path                id="grQrb150h"        d="m -0.06967449,-2.4386219 c -1.49709001,-0.13408 -3.22379001,1.68936001 -2.72756001,3.14607001 0.49623,1.45668999 3.68375001,1.98365999 5.16631,0.98513999 1.48257,-0.99852999 -0.94167,-3.99709 -2.43874999,-4.13121 z"        style="color:#a0a0a0;opacity:1;fill:#a0a0a0;stroke:none;stroke-width:0.99212599"         /></symbol>
<symbol id="grrb150i"><title>Pebble, i</title><path                id="grQrb150i"        d="m -2.8566506,-0.20904098 c 1.18967,1.12303002 2.38167998,2.89333998 3.33253998,2.36704998 0.95086002,-0.52632 3.03078002,-2.81481998 1.34584002,-3.69261 -1.68496002,-0.87778 -5.86803,0.20251 -4.67838,1.32556002 z"        style="color:#a0a0a0;opacity:1;fill:#a0a0a0;stroke:none;stroke-width:0.99212605"         /></symbol>
<symbol id="grrb150j"><title>Pebble, j</title><path                id="grQrb150j"        d="m -2.0205578,1.7418423 c -0.79311,-0.724 0.46859,-3.28343 2.99202002,-3.67037 2.52342998,-0.38691 1.53565998,0.88538 0.0956,2.78441001 -1.4401699,1.89902999 -2.29438,1.61015999 -3.08751,0.88595999 z"        style="color:#a0a0a0;opacity:1;fill:#a0a0a0;stroke:none;stroke-width:0.99212605"         /></symbol>
	</defs>
</svg>
